<svg width="71" height="20" viewBox="0 0 71 20" fill="none" xmlns="http://www.w3.org/2000/svg">
<path d="M3.71755 0.123457C2.28645 0.722909 0.713436 2.41428 0.216587 4.53894C-0.412728 7.23003 2.20563 8.36839 2.42056 7.99565C2.6733 7.55716 1.95138 7.40894 1.80275 6.0125C1.6107 4.20894 2.44919 2.19373 3.50453 1.30948C3.70042 1.1451 3.69124 1.37387 3.69124 1.79674C3.69124 2.55305 3.64946 9.34263 3.64946 10.7596C3.64946 12.6769 3.57029 13.2824 3.42796 13.8807C3.28398 14.4869 3.0522 14.8966 3.22768 15.0544C3.42385 15.2309 4.26138 14.811 4.74618 14.1344C5.32755 13.3229 5.53111 12.3481 5.56768 11.2899C5.61179 10.014 5.60988 7.98935 5.61179 6.83455C5.61344 5.77551 5.6296 2.67428 5.59316 0.809895C5.58426 0.352361 4.31604 -0.127365 3.71755 0.123457" fill="#E9436F"/>
<path d="M54.5317 9.09643C54.4855 10.0933 54.2648 10.8723 53.991 11.4219C53.4608 12.4859 52.3608 12.8162 51.8937 11.2868C51.6392 10.4531 51.6273 9.06081 51.8101 7.89739C51.9964 6.71232 52.5167 5.81725 53.378 5.89794C54.2275 5.9778 54.6252 7.07246 54.5317 9.09657V9.09643ZM40.2097 15.2808C40.1982 16.937 39.9375 18.389 39.3786 18.811C38.5858 19.409 37.5201 18.9603 37.7408 17.7518C37.936 16.6823 38.8595 15.5901 40.2121 14.2556C40.2121 14.2556 40.2148 14.56 40.2097 15.2808ZM39.9933 9.08671C39.9448 9.99465 39.7095 10.9066 39.4526 11.4219C38.9225 12.4859 37.8145 12.8185 37.3554 11.2868C37.0414 10.2403 37.1166 8.88602 37.2718 8.0326C37.4734 6.92533 37.9622 5.89807 38.8396 5.89807C39.6928 5.89807 40.1136 6.8341 39.9933 9.08671ZM31.6967 9.07301C31.6447 10.0344 31.4571 10.8381 31.1562 11.4219C30.6115 12.4786 29.534 12.8137 29.0589 11.2868C28.7163 10.1859 28.8329 8.68479 28.9754 7.87383C29.1869 6.6704 29.7164 5.81725 30.5432 5.89807C31.3923 5.98109 31.8051 7.07246 31.6967 9.07301V9.07301ZM69.7177 10.196C69.5101 10.196 69.4154 10.41 69.3369 10.77C69.0652 12.0226 68.7793 12.3052 68.411 12.3052C67.9993 12.3052 67.6295 11.6852 67.5343 10.4438C67.4596 9.46766 67.4717 7.67068 67.5671 5.88314C67.5867 5.51588 67.4854 5.15246 66.5003 4.79465C66.0764 4.64068 65.4603 4.41397 65.1534 5.15451C64.2867 7.24684 63.9475 8.90794 63.8677 9.58246C63.8636 9.61739 63.8207 9.62465 63.8133 9.54301C63.7623 9.0026 63.6488 8.0204 63.6345 5.95712C63.6318 5.55451 63.5466 5.21191 63.1022 4.93136C62.8138 4.74917 61.9384 4.42725 61.6232 4.8104C61.35 5.12355 61.0336 5.96657 60.7049 6.96602C60.4378 7.77835 60.2518 8.32766 60.2518 8.32766C60.2518 8.32766 60.2554 6.13616 60.2585 5.30479C60.2599 4.99123 60.0448 4.8867 59.9799 4.8678C59.6881 4.78314 59.1128 4.64164 58.8686 4.64164C58.5673 4.64164 58.4936 4.80986 58.4936 5.05533C58.4936 5.08753 58.446 7.94068 58.446 9.93575C58.446 10.0225 58.446 10.117 58.4465 10.2175C58.2799 11.1345 57.7395 12.3792 57.1518 12.3792C56.5633 12.3792 56.2858 11.8589 56.2858 9.4804C56.2858 8.09287 56.3274 7.48944 56.3478 6.48588C56.3597 5.9078 56.3827 5.46396 56.3814 5.36328C56.377 5.05438 55.843 4.89862 55.5944 4.84109C55.3447 4.78314 55.1277 4.76054 54.9582 4.77027C54.7184 4.78397 54.5486 4.94109 54.5486 5.15753C54.5486 5.27369 54.55 5.49424 54.55 5.49424C54.2411 5.00876 53.7443 4.67095 53.4137 4.57301C52.5233 4.30862 51.5943 4.54287 50.8934 5.52355C50.3364 6.3026 50.0007 7.1852 49.8685 8.45301C49.7719 9.37999 49.8034 10.3199 49.9752 11.1148C49.7677 12.0118 49.3826 12.3792 48.9608 12.3792C48.3485 12.3792 47.9047 11.38 47.9562 9.6515C47.9901 8.51465 48.2177 7.71684 48.4663 6.5626C48.5723 6.07054 48.4862 5.81301 48.2701 5.56616C48.0719 5.33972 47.6496 5.22396 47.0428 5.36616C46.6104 5.46766 45.9922 5.57684 45.4266 5.66068C45.4266 5.66068 45.4608 5.52438 45.4888 5.28438C45.6359 4.02547 44.2678 4.12753 43.8312 4.52958C43.5708 4.76972 43.3934 5.05287 43.3262 5.56191C43.2193 6.36986 43.8782 6.75095 43.8782 6.75095C43.6622 7.74054 43.1322 9.03314 42.5851 9.9678C42.2921 10.4685 42.068 10.8396 41.7785 11.234C41.7691 9.65125 41.7794 8.06848 41.8095 6.48602C41.8214 5.90794 41.8445 5.47588 41.8433 5.37506C41.84 5.14931 41.7081 5.06383 41.4337 4.95588C41.191 4.86027 40.9041 4.79424 40.6064 4.77095C40.2308 4.74191 40.0045 4.94095 40.0106 5.17657C40.0117 5.22109 40.0117 5.49424 40.0117 5.49424C39.7028 5.00876 39.2059 4.67095 38.8754 4.57301C37.9849 4.30862 37.0559 4.54287 36.3551 5.52355C35.7982 6.3026 35.4336 7.39602 35.3301 8.44342C35.234 9.41944 35.2517 10.2489 35.3829 10.9478C35.2414 11.6475 34.8343 12.3793 34.3741 12.3793C33.7856 12.3793 33.4508 11.8589 33.4508 9.4804C33.4508 8.09287 33.4925 7.48944 33.513 6.48588C33.5249 5.90794 33.5478 5.46396 33.5466 5.36328C33.5422 5.05438 33.0081 4.89876 32.7595 4.84109C32.4995 4.78081 32.2749 4.7589 32.1025 4.77164C31.8751 4.78849 31.7151 4.99218 31.7151 5.1441V5.49424C31.4062 5.00876 30.9093 4.67095 30.5788 4.57301C29.6884 4.30862 28.7645 4.5467 28.0585 5.52355C27.5982 6.1604 27.2255 6.86643 27.0337 8.42944C26.9782 8.88109 26.9537 9.30424 26.957 9.69944C26.7734 10.8222 25.9625 12.1162 25.2993 12.1162C24.9112 12.1162 24.5415 11.3633 24.5415 9.75903C24.5415 7.62205 24.6738 4.57931 24.6963 4.28616C24.6963 4.28616 25.5343 4.27191 25.6964 4.26999C26.1145 4.26534 26.493 4.27534 27.0499 4.24671C27.3291 4.2326 27.5981 3.23027 27.3099 3.10629C27.1792 3.05013 26.256 3.00109 25.89 2.99328C25.5823 2.98643 24.7256 2.92287 24.7256 2.92287C24.7256 2.92287 24.8025 0.90328 24.8204 0.689993C24.8355 0.512047 24.6054 0.420541 24.4736 0.365061C24.1527 0.229445 23.8658 0.164376 23.5256 0.0942392C23.0555 -0.00274711 22.8423 0.0921844 22.8007 0.48876C22.738 1.09081 22.7055 2.85424 22.7055 2.85424C22.3606 2.85424 21.1822 2.78684 20.8373 2.78684C20.5167 2.78684 20.1707 4.16547 20.614 4.18246C21.1238 4.20218 22.0125 4.21944 22.6015 4.23698C22.6015 4.23698 22.5752 7.32986 22.5752 8.28492C22.5752 8.38629 22.5758 8.48424 22.5763 8.57917C22.2521 10.2689 21.1101 11.1818 21.1101 11.1818C21.3554 10.0638 20.8544 9.22424 19.9521 8.51355C19.6196 8.25177 18.9633 7.75602 18.2291 7.21273C18.2291 7.21273 18.6543 6.79355 19.0315 5.95027C19.2986 5.35273 19.3103 4.66931 18.6543 4.51849C17.5704 4.26917 16.6769 5.0652 16.4103 5.91506C16.2037 6.57342 16.3138 7.06177 16.7185 7.56917C16.748 7.60629 16.7801 7.64424 16.813 7.68232C16.5685 8.15383 16.2323 8.78876 15.9477 9.28109C15.1575 10.6482 14.5607 11.7293 14.1096 11.7293C13.7491 11.7293 13.7538 10.6315 13.7538 9.60369C13.7538 8.71766 13.8193 7.38547 13.8717 6.00643C13.8889 5.55027 13.6607 5.2904 13.2785 5.05506C13.0462 4.91205 12.5504 4.63095 12.2633 4.63095C11.8334 4.63095 10.5934 4.68944 9.42193 8.07849C9.27426 8.50561 8.98412 9.28397 8.98412 9.28397L9.00919 5.20849C9.00919 5.11287 8.95823 5.02054 8.84165 4.95739C8.64426 4.85013 8.117 4.63095 7.64809 4.63095C7.4248 4.63095 7.31316 4.73479 7.31316 4.94191L7.27234 11.3181C7.27234 11.8026 7.28494 12.3678 7.33289 12.6149C7.38056 12.8623 7.45796 13.0637 7.55357 13.1834C7.64933 13.303 7.75987 13.3944 7.9422 13.4319C8.11193 13.4668 9.04124 13.5862 9.0896 13.2311C9.14741 12.8053 9.14974 12.3451 9.63768 10.6281C10.3974 7.95492 11.3878 6.65081 11.8536 6.18753C11.9351 6.1067 12.028 6.10177 12.0234 6.23424C12.0037 6.82027 11.9337 8.28492 11.8867 9.52876C11.7606 12.8582 12.3662 13.4753 13.2318 13.4753C13.894 13.4753 14.8274 12.8174 15.828 11.1519C16.3855 10.2238 16.9404 9.29408 17.4927 8.36287C17.7959 8.64355 18.1363 8.94561 18.4763 9.26835C19.2667 10.0185 19.5262 10.7314 19.354 11.4075C19.2225 11.9244 18.7264 12.4571 17.8438 11.9394C17.5866 11.7883 17.4767 11.6715 17.2181 11.5012C17.0792 11.4099 16.867 11.3825 16.7397 11.4783C16.4093 11.7274 16.2203 12.0444 16.1123 12.4367C16.0074 12.8185 16.3897 13.0203 16.7862 13.1968C17.1274 13.3488 17.861 13.4864 18.3286 13.502C20.1512 13.563 21.6114 12.622 22.6278 10.1948C22.8097 12.2911 23.584 13.4773 24.9293 13.4773C25.8288 13.4773 26.7306 12.3147 27.1249 11.171C27.2381 11.6371 27.4058 12.0426 27.6222 12.3855C28.6588 14.0279 30.6697 13.6745 31.6799 12.2797C31.9922 11.8488 32.0397 11.694 32.0397 11.694C32.1871 13.0108 33.2477 13.471 33.8548 13.471C34.5349 13.471 35.237 13.1494 35.7292 12.0415C35.7869 12.1618 35.8499 12.2767 35.9186 12.3855C36.9552 14.0279 38.9663 13.6745 39.9764 12.2797C40.0241 12.2142 40.0655 12.1551 40.1015 12.1016L40.1311 12.9667L39.2011 13.8197C37.6422 15.2485 36.4581 16.332 36.371 17.5941C36.26 19.2033 37.5644 19.8014 38.5526 19.8797C39.6001 19.9629 40.4989 19.3837 41.0504 18.5731C41.5359 17.8596 41.8537 16.324 41.8303 14.8074C41.8211 14.2 41.8056 13.4278 41.7937 12.6C42.341 11.9645 42.9575 11.1612 43.5252 10.2212C44.1438 9.1967 44.8069 7.82081 45.1463 6.74999C45.1463 6.74999 45.7223 6.75506 46.3371 6.71479C46.5337 6.70191 46.5903 6.74218 46.5538 6.88616C46.51 7.0604 45.7771 9.88684 46.446 11.7697C46.9037 13.0588 47.9356 13.4733 48.5474 13.4733C49.2637 13.4733 49.9488 12.9325 50.3159 12.1294C50.3603 12.2189 50.4065 12.3055 50.457 12.3856C51.4936 14.0281 53.4975 13.6723 54.5148 12.2797C54.7444 11.9655 54.8747 11.694 54.8747 11.694C55.0929 13.057 56.1529 13.4779 56.76 13.4779C57.3923 13.4779 57.9926 13.2186 58.4795 12.0664C58.5 12.5738 58.5319 12.9886 58.5825 13.1193C58.6133 13.1994 58.793 13.2997 58.9237 13.3482C59.5023 13.5627 60.0922 13.4614 60.3106 13.4173C60.4618 13.3866 60.5797 13.2652 60.5959 12.952C60.6384 12.1294 60.6123 10.7474 60.8617 9.72013C61.2801 7.99643 61.6707 7.3278 61.8559 6.99684C61.9596 6.81123 62.0764 6.78068 62.0807 6.97698C62.0895 7.37424 62.1092 8.5404 62.2714 10.1075C62.3906 11.2599 62.5495 11.9411 62.6718 12.1568C63.0208 12.7733 63.4517 12.8025 63.8026 12.8025C64.0259 12.8025 64.4927 12.7408 64.451 12.3485C64.4306 12.1573 64.4662 10.9753 64.8789 9.27712C65.1484 8.16808 65.5977 7.16616 65.7597 6.79972C65.8196 6.66465 65.8474 6.77109 65.8463 6.79191C65.8122 7.55561 65.7356 10.0537 66.0467 11.42C66.4686 13.2708 67.6886 13.4779 68.1138 13.4779C69.0215 13.4779 69.7638 12.7875 70.0138 10.9708C70.0741 10.5336 69.9849 10.196 69.7177 10.196Z" fill="#E9436F"/>
</svg>
