<svg xmlns="http://www.w3.org/2000/svg" width="29" height="20" fill="none" viewBox="0 0 29 20"><g clip-path="url(#clip0)"><path fill="#fff" d="M11.2917 13.6888L18.9805 9.71106L11.2917 5.69995V13.6888V13.6888Z"/><path fill="#420000" d="M11.2917 5.69995L18.0361 10.2L18.9805 9.71106L11.2917 5.69995V5.69995Z" opacity=".12"/><path fill="url(#paint0_linear)" d="M28.1473 4.31111C28.1473 4.31111 27.8697 2.35556 27.0144 1.48889C25.9371 0.355556 24.7264 0.355556 24.16 0.288889C20.195 0 14.2306 0 14.2306 0H14.2194C14.2194 0 8.25511 0 4.26778 0.288889C3.71244 0.355556 2.50178 0.355556 1.41333 1.48889C0.569222 2.35556 0.291555 4.31111 0.291555 4.31111C0.291555 4.31111 0.0027771 6.62222 0.0027771 8.92222V11.0778C0.0027771 13.3778 0.291555 15.6778 0.291555 15.6778C0.291555 15.6778 0.569222 17.6333 1.42444 18.5C2.50178 19.6333 3.92344 19.6 4.55656 19.7111C6.83344 19.9333 14.2194 20 14.2194 20C14.2194 20 20.1949 19.9889 24.1711 19.7C24.7264 19.6333 25.9371 19.6333 27.0256 18.5C27.8808 17.6333 28.1584 15.6778 28.1584 15.6778C28.1584 15.6778 28.4472 13.3778 28.4472 11.0778V8.92222C28.4361 6.62222 28.1473 4.31111 28.1473 4.31111ZM11.2873 13.6889V5.7L18.9731 9.71111L11.2872 13.6889H11.2873Z"/></g><defs><linearGradient id="paint0_linear" x1="14.219" x2="14.219" y1="0" y2="20.006" gradientUnits="userSpaceOnUse"><stop stop-color="#E52D27"/><stop offset="1" stop-color="#BF171D"/></linearGradient><clipPath id="clip0"><rect width="28.45" height="20" fill="#fff"/></clipPath></defs></svg>