<svg xmlns="http://www.w3.org/2000/svg" width="25" height="20" fill="none" viewBox="0 0 25 20"><path fill="#55ACEE" d="M24.4988 2.43536C23.5974 2.83507 22.6288 3.10522 21.6121 3.22675C22.6499 2.60474 23.4467 1.61976 23.822 0.446173C22.8354 1.03161 21.756 1.44409 20.6305 1.66579C19.7136 0.689044 18.4075 0.0786133 16.9619 0.0786133C14.1862 0.0786133 11.9357 2.32895 11.9357 5.10445C11.9357 5.49842 11.9802 5.88196 12.0659 6.2499C7.88885 6.04024 4.1855 4.03938 1.70655 0.998613C1.27401 1.74091 1.02617 2.60435 1.02617 3.52531C1.02617 5.26904 1.91353 6.80732 3.26205 7.70866C2.46392 7.68366 1.68334 7.4681 0.985496 7.07995C0.985209 7.10101 0.985209 7.12206 0.985209 7.14321C0.985209 9.57833 2.71765 11.6097 5.01679 12.0714C4.27668 12.2727 3.50036 12.3022 2.74712 12.1576C3.38664 14.1543 5.24282 15.6073 7.44205 15.648C5.72196 16.9959 3.55478 17.7995 1.20014 17.7995C0.794396 17.7995 0.394396 17.7756 0.00119019 17.7292C2.2254 19.1553 4.86722 19.9873 7.7055 19.9873C16.9502 19.9873 22.0054 12.3289 22.0054 5.68732C22.0054 5.46933 22.0006 5.25258 21.9909 5.03708C22.9748 4.32578 23.8241 3.44475 24.4988 2.43536"/></svg>