<svg width="15" height="16" viewBox="0 0 15 16" fill="none" xmlns="http://www.w3.org/2000/svg">
<path d="M0.9375 11.75C1.62598 11.75 2.29004 11.6621 2.92969 11.4863C3.56934 11.3057 4.16504 11.0518 4.7168 10.7246C5.27344 10.3975 5.77881 10.0068 6.23291 9.55273C6.69189 9.09375 7.08496 8.58838 7.41211 8.03662C7.73926 7.47998 7.99072 6.88184 8.1665 6.24219C8.34717 5.60254 8.4375 4.93848 8.4375 4.25C8.4375 3.60059 8.35449 2.96338 8.18848 2.33838C8.02246 1.71338 7.78076 1.12012 7.46338 0.558594C8.08838 0.636719 8.68652 0.785645 9.25781 1.00537C9.8291 1.2251 10.3589 1.50586 10.8472 1.84766C11.3354 2.18945 11.7773 2.58496 12.1729 3.03418C12.5684 3.47852 12.9053 3.96436 13.1836 4.4917C13.4668 5.01416 13.6841 5.57324 13.8354 6.16895C13.9868 6.75977 14.0625 7.37012 14.0625 8C14.0625 8.68848 13.9722 9.35254 13.7915 9.99219C13.6157 10.6318 13.3643 11.23 13.0371 11.7866C12.71 12.3384 12.3169 12.8438 11.8579 13.3027C11.4038 13.7568 10.8984 14.1475 10.3418 14.4746C9.79004 14.8018 9.19434 15.0557 8.55469 15.2363C7.91504 15.4121 7.25098 15.5 6.5625 15.5C5.88867 15.5 5.23193 15.4121 4.59229 15.2363C3.95264 15.0605 3.34961 14.8091 2.7832 14.4819C2.22168 14.1499 1.70654 13.7495 1.23779 13.2808C0.769043 12.8071 0.368652 12.2773 0.0366211 11.6914C0.187988 11.7109 0.336914 11.7256 0.483398 11.7354C0.634766 11.7451 0.786133 11.75 0.9375 11.75ZM6.5625 14.5625C7.16797 14.5625 7.74902 14.4844 8.30566 14.3281C8.86719 14.1719 9.38965 13.9521 9.87305 13.6689C10.3613 13.3809 10.8032 13.0391 11.1987 12.6436C11.5991 12.2432 11.9409 11.8013 12.2241 11.3179C12.5122 10.8296 12.7344 10.3071 12.8906 9.75049C13.0469 9.18896 13.125 8.60547 13.125 8C13.125 7.33594 13.0273 6.69385 12.832 6.07373C12.6367 5.44873 12.3608 4.87256 12.0044 4.34521C11.6528 3.81299 11.2256 3.33936 10.7227 2.92432C10.2197 2.50928 9.66064 2.17725 9.04541 1.92822C9.26514 2.68506 9.375 3.45898 9.375 4.25C9.375 4.96289 9.28955 5.65381 9.11865 6.32275C8.94775 6.98682 8.70361 7.6167 8.38623 8.2124C8.06885 8.80322 7.68555 9.35254 7.23633 9.86035C6.78711 10.3633 6.28662 10.8076 5.73486 11.1934C5.18311 11.5742 4.58496 11.8892 3.94043 12.1382C3.30078 12.3823 2.62695 12.5459 1.91895 12.6289C2.54395 13.2539 3.25195 13.7324 4.04297 14.0645C4.83887 14.3965 5.67871 14.5625 6.5625 14.5625Z" fill="#4385E9"/>
</svg>
